<?xml version="1.0" standalone="no"?>
<!DOCTYPE svg PUBLIC "-//W3C//DTD SVG 20010904//EN"
 "http://www.w3.org/TR/2001/REC-SVG-20010904/DTD/svg10.dtd">
<svg version="1.0" xmlns="http://www.w3.org/2000/svg"
 width="256.000000pt" height="257.000000pt" viewBox="0 0 256.000000 257.000000"
 preserveAspectRatio="xMidYMid meet">

<g transform="translate(0.000000,257.000000) scale(0.100000,-0.100000)"
fill="#000000" stroke="none">
<path d="M1271 2073 c-41 -21 -76 -43 -78 -50 -2 -6 17 -35 43 -64 54 -61 104
-136 104 -157 0 -12 -11 -13 -52 -9 -245 28 -268 29 -350 11 -62 -14 -91 -26
-127 -54 -78 -63 -124 -112 -175 -190 -27 -41 -87 -124 -134 -185 -98 -128
-105 -140 -144 -259 -25 -75 -31 -113 -35 -214 -5 -122 -5 -123 26 -187 18
-35 55 -87 82 -114 42 -42 64 -55 127 -75 139 -43 257 -51 510 -31 227 17 390
13 557 -15 33 -5 126 -10 206 -10 133 0 152 2 200 24 30 13 75 45 101 71 73
72 90 134 95 365 3 102 1 239 -5 305 -8 107 -13 127 -43 185 -20 38 -63 94
-105 136 -38 39 -94 98 -123 132 -66 76 -94 84 -301 92 l-154 5 -9 35 c-17 68
-51 155 -69 179 -10 13 -18 29 -18 35 0 6 -13 26 -28 44 l-27 32 -74 -37z
m128 -107 c24 -42 52 -132 51 -164 0 -4 -14 16 -31 43 -17 28 -54 74 -82 102
-28 29 -49 54 -46 56 55 45 64 42 108 -37z m-379 -248 c-22 -57 -25 -88 -11
-88 5 0 17 24 25 53 23 78 35 85 131 76 44 -4 167 -15 274 -24 107 -9 203 -20
213 -26 16 -9 23 -24 30 -73 2 -11 9 -21 17 -24 14 -5 13 12 -5 77 -12 42 20
18 36 -27 8 -23 20 -42 27 -42 17 0 16 13 -2 57 -8 20 -14 37 -12 39 11 12
112 -34 154 -69 149 -127 255 -290 273 -418 19 -142 32 -353 26 -416 -16 -154
-57 -223 -161 -264 -53 -20 -77 -23 -195 -23 -74 -1 -256 5 -405 13 -148 7
-297 10 -330 7 -233 -24 -271 -26 -373 -16 -59 6 -123 15 -143 20 -79 21 -166
114 -190 204 -7 23 -12 84 -12 136 0 84 5 107 37 198 20 56 47 126 60 156 36
82 235 373 284 417 48 42 154 99 184 99 17 0 16 -5 -12 -57 -33 -64 -37 -83
-16 -83 7 0 21 19 30 43 23 62 54 107 71 107 13 0 12 -8 -5 -52z"/>
<path d="M1085 1601 c-79 -20 -118 -57 -154 -150 -37 -93 -23 -189 34 -240 37
-32 118 -61 170 -61 85 0 183 54 226 123 l17 29 11 -35 c25 -74 104 -113 211
-104 38 3 79 11 91 18 61 32 95 110 85 192 -8 57 -32 124 -55 151 -27 31 -89
57 -156 63 -54 5 -68 3 -98 -16 -19 -12 -42 -33 -51 -46 -20 -30 -33 -32 -41
-5 -19 61 -184 107 -290 81z m181 -52 c17 -5 46 -25 65 -45 32 -33 34 -39 34
-103 0 -59 -4 -73 -29 -110 -43 -62 -99 -91 -173 -91 -77 0 -148 22 -184 56
-26 24 -29 35 -29 87 0 57 1 60 58 124 87 99 143 117 258 82z m375 -26 c77
-46 104 -221 45 -290 -21 -24 -32 -28 -92 -31 -80 -4 -121 15 -151 70 -24 46
-24 151 1 202 37 74 119 95 197 49z"/>
<path d="M1124 1315 c-7 -17 2 -45 14 -45 4 0 17 6 27 14 16 12 17 16 6 30
-17 20 -40 21 -47 1z"/>
<path d="M1643 1393 c-7 -3 -13 -13 -13 -23 0 -19 17 -30 38 -23 6 3 12 13 12
23 0 19 -17 30 -37 23z"/>
<path d="M2062 1378 c6 -18 28 -21 28 -4 0 9 -7 16 -16 16 -9 0 -14 -5 -12
-12z"/>
<path d="M2092 1338 c6 -18 28 -21 28 -4 0 9 -7 16 -16 16 -9 0 -14 -5 -12
-12z"/>
<path d="M515 1180 c-7 -12 2 -30 16 -30 12 0 12 27 0 35 -5 3 -12 1 -16 -5z"/>
<path d="M1868 1151 c-53 -34 -60 -47 -51 -106 5 -41 4 -45 -15 -45 -16 0 -24
11 -35 48 -9 32 -18 46 -28 42 -8 -2 -70 -6 -139 -8 -127 -4 -150 -10 -150
-43 0 -26 -11 -29 -69 -22 -42 5 -55 11 -64 29 -10 23 -15 24 -102 24 -98 0
-110 -5 -117 -50 -3 -24 -4 -24 -98 -21 -52 1 -97 5 -100 7 -2 3 -3 22 -1 42
3 48 -19 69 -95 88 -115 31 -160 -2 -203 -147 -16 -52 -39 -121 -51 -153 -29
-81 -22 -118 30 -152 22 -15 46 -24 54 -21 8 3 18 26 21 52 4 25 11 47 15 50
4 2 23 0 43 -6 33 -9 37 -14 37 -43 0 -59 10 -63 172 -69 159 -7 164 -6 170
48 2 24 8 31 29 33 25 3 27 -1 35 -45 l9 -48 191 0 c226 0 224 0 224 86 l0 59
35 0 c36 0 38 -4 47 -90 l3 -25 110 1 c61 1 122 6 138 13 25 10 27 14 28 78
l2 68 6 -57 c3 -31 10 -60 14 -64 4 -5 23 0 42 10 55 30 65 69 56 222 -6 115
-10 134 -34 175 -44 74 -87 85 -159 40z"/>
<path d="M485 1130 c-7 -12 2 -30 16 -30 12 0 12 27 0 35 -5 3 -12 1 -16 -5z"/>
</g>
</svg>
