<svg width="49" height="49" viewBox="0 0 49 49" fill="none" xmlns="http://www.w3.org/2000/svg">
<path fill-rule="evenodd" clip-rule="evenodd" d="M35.8391 0.444595C35.8391 0.444595 35.8391 0.444494 35.7607 0.448222C35.6927 0.404411 35.6927 0.404464 35.6927 0.404464L35.6905 0.408705L35.6838 0.421668L35.6574 0.472563C35.6342 0.517248 35.5998 0.582983 35.5552 0.66702C35.4662 0.835101 35.3367 1.07637 35.1751 1.36887C34.8519 1.95396 34.4003 2.74361 33.887 3.56226C33.3734 4.38121 32.799 5.22764 32.23 5.92705C31.6589 6.62901 31.1009 7.17318 30.6209 7.39967L30.6818 7.56181C31.1953 7.31947 31.7727 6.75015 32.3459 6.04561C32.9212 5.33851 33.4999 4.48542 34.0153 3.66344C34.5309 2.84118 34.9842 2.04851 35.3085 1.46151C35.4707 1.16797 35.6006 0.925757 35.6901 0.756863C35.6922 0.752994 35.6942 0.749162 35.6962 0.74537C35.6991 0.800949 35.7026 0.863767 35.7066 0.93325C35.7241 1.23753 35.7524 1.66971 35.7957 2.1817C35.8824 3.20526 36.0291 4.54947 36.2694 5.82865C36.5092 7.10468 36.8442 8.32806 37.3125 9.10147C37.5469 9.48868 37.8206 9.77305 38.1411 9.88722C38.4652 10.0027 38.8218 9.93885 39.2088 9.66487L39.1251 9.51612C38.767 9.76957 38.4583 9.81564 38.1886 9.71956C37.9154 9.62221 37.6669 9.37365 37.4423 9.00266C36.9924 8.25968 36.6622 7.06564 36.4229 5.79238C36.1843 4.52227 36.0383 3.18533 35.9519 2.16508C35.9088 1.65514 35.8805 1.22475 35.8631 0.921924C35.8544 0.770519 35.8484 0.651025 35.8446 0.569447C35.8427 0.528658 35.8413 0.49735 35.8404 0.476274L35.8394 0.452428L35.8391 0.444595ZM35.7607 0.448222L35.6927 0.404464L35.8276 0.141055L35.8391 0.444595L35.7607 0.448222Z" fill="white"/>
<path fill-rule="evenodd" clip-rule="evenodd" d="M28.7305 30.3782C32.5539 22.9435 34.9877 14.5324 34.9877 6.77732L34.8308 6.77732C34.8308 14.4938 32.4082 22.8748 28.5945 30.2903C24.7809 37.7059 19.5803 44.1482 14.0323 47.9914L14.1148 48.1411C19.6897 44.2793 24.907 37.8129 28.7305 30.3782Z" fill="white"/>
</svg>
