<svg width="48" height="48" viewBox="0 0 48 48" fill="none" xmlns="http://www.w3.org/2000/svg">
<path d="M45.0802 12.84C44.8426 11.8908 44.3587 11.0211 43.6775 10.3188C42.9962 9.61648 42.1417 9.10637 41.2002 8.84C37.7602 8 24.0002 8 24.0002 8C24.0002 8 10.2402 8 6.80017 8.92C5.85866 9.18637 5.00412 9.69648 4.32286 10.3988C3.6416 11.1011 3.15774 11.9708 2.92017 12.92C2.2906 16.4111 1.98264 19.9526 2.00017 23.5C1.97773 27.0741 2.2857 30.6426 2.92017 34.16C3.18209 35.0797 3.67678 35.9163 4.35645 36.589C5.03613 37.2616 5.87781 37.7476 6.80017 38C10.2402 38.92 24.0002 38.92 24.0002 38.92C24.0002 38.92 37.7602 38.92 41.2002 38C42.1417 37.7336 42.9962 37.2235 43.6775 36.5212C44.3587 35.8189 44.8426 34.9492 45.0802 34C45.7049 30.5352 46.0128 27.0207 46.0002 23.5C46.0226 19.9259 45.7146 16.3574 45.0802 12.84V12.84Z" stroke="#BF91F9" stroke-width="1.4" stroke-linecap="round" stroke-linejoin="round"/>
<path d="M19.5 30.04L31 23.5L19.5 16.96V30.04Z" stroke="#BF91F9" stroke-width="1.4" stroke-linecap="round" stroke-linejoin="round"/>
</svg>
